<svg xmlns="http://www.w3.org/2000/svg" xmlns:xlink="http://www.w3.org/1999/xlink" width="2500" height="2500" viewBox="0 0 512 512.068" preserveAspectRatio="xMidYMid"><defs><linearGradient x1="79.822" y1="21.347" x2="32.862" y2="105.422" id="prefix__b" gradientTransform="scale(.93682 1.06744)" gradientUnits="userSpaceOnUse"><stop stop-color="#41873F" offset="0%"/><stop stop-color="#418B3D" offset="32.88%"/><stop stop-color="#419637" offset="63.52%"/><stop stop-color="#3FA92D" offset="93.19%"/><stop stop-color="#3FAE2A" offset="100%"/></linearGradient><linearGradient x1="51.369" y1="64.595" x2="184.674" y2="-19.865" id="prefix__d" gradientTransform="scale(.92602 1.07989)" gradientUnits="userSpaceOnUse"><stop stop-color="#41873F" offset="13.76%"/><stop stop-color="#54A044" offset="40.32%"/><stop stop-color="#66B848" offset="71.36%"/><stop stop-color="#6CC04A" offset="90.81%"/></linearGradient><linearGradient x1="5.463" y1="1.396" x2="60.625" y2="1.396" id="prefix__e" gradientTransform="scale(1.63182 .61281)" gradientUnits="userSpaceOnUse"><stop stop-color="#6CC04A" offset="9.192%"/><stop stop-color="#66B848" offset="28.64%"/><stop stop-color="#54A044" offset="59.68%"/><stop stop-color="#41873F" offset="86.24%"/></linearGradient><linearGradient x1="-1.422" y1="66.99" x2="120.279" y2="66.99" id="prefix__f" gradientTransform="scale(.92515 1.0809)" gradientUnits="userSpaceOnUse"><stop stop-color="#6CC04A" offset="9.192%"/><stop stop-color="#66B848" offset="28.64%"/><stop stop-color="#54A044" offset="59.68%"/><stop stop-color="#41873F" offset="86.24%"/></linearGradient><linearGradient x1="117.947" y1="68.392" x2="169.562" y2="68.392" id="prefix__g" gradientTransform="scale(.65492 1.5269)" gradientUnits="userSpaceOnUse"><stop stop-color="#6CC04A" offset="9.192%"/><stop stop-color="#66B848" offset="28.64%"/><stop stop-color="#54A044" offset="59.68%"/><stop stop-color="#41873F" offset="86.24%"/></linearGradient><linearGradient x1="-1.039" y1="150.751" x2="87.897" y2="150.751" id="prefix__h" gradientTransform="scale(1.26597 .7899)" gradientUnits="userSpaceOnUse"><stop stop-color="#6CC04A" offset="9.192%"/><stop stop-color="#66B848" offset="28.64%"/><stop stop-color="#54A044" offset="59.68%"/><stop stop-color="#41873F" offset="86.24%"/></linearGradient><linearGradient x1="100.854" y1="37.182" x2="46.004" y2="216.513" id="prefix__i" gradientTransform="scale(1.26597 .7899)" gradientUnits="userSpaceOnUse"><stop stop-color="#41873F" offset="0%"/><stop stop-color="#418B3D" offset="32.88%"/><stop stop-color="#419637" offset="63.52%"/><stop stop-color="#3FA92D" offset="93.19%"/><stop stop-color="#3FAE2A" offset="100%"/></linearGradient><path id="prefix__a" d="M57.903 1.85a5.957 5.957 0 00-5.894 0L3.352 29.933c-1.85 1.04-2.89 3.005-2.89 5.085v56.286c0 2.08 1.156 4.045 2.89 5.085l48.657 28.085a5.957 5.957 0 005.894 0l48.658-28.085c1.849-1.04 2.89-3.005 2.89-5.085V35.019c0-2.08-1.157-4.045-2.89-5.085z"/></defs><path d="M-.034 0h512.068v512.068H-.034z" fill="#f7df1e"/><g fill="none"><path d="M253.649 378.97c-1.53 0-2.96-.408-4.288-1.123l-13.577-8.064c-2.042-1.124-1.021-1.532-.408-1.736 2.756-.918 3.266-1.123 6.125-2.756.306-.205.715-.102 1.02.102l10.414 6.227c.408.204.919.204 1.224 0l40.734-23.582c.408-.204.613-.613.613-1.123v-47.062c0-.512-.205-.919-.613-1.124l-40.734-23.48c-.408-.205-.918-.205-1.224 0l-40.733 23.48c-.408.204-.613.715-.613 1.123v47.062c0 .41.205.919.613 1.124l11.128 6.431c6.023 3.062 9.8-.51 9.8-4.083v-46.45c0-.613.51-1.226 1.225-1.226h5.206c.613 0 1.225.51 1.225 1.225v46.45c0 8.065-4.39 12.762-12.046 12.762-2.348 0-4.185 0-9.392-2.553l-10.72-6.125a8.615 8.615 0 01-4.287-7.452v-47.063a8.615 8.615 0 014.288-7.452l40.732-23.582c2.553-1.43 6.024-1.43 8.576 0l40.733 23.582a8.616 8.616 0 014.288 7.452v47.063a8.616 8.616 0 01-4.288 7.452l-40.733 23.582c-1.327.613-2.858.92-4.287.92zm12.557-32.361c-17.865 0-21.54-8.167-21.54-15.11 0-.612.51-1.224 1.225-1.224h5.308c.613 0 1.123.408 1.123 1.02.817 5.41 3.165 8.065 13.986 8.065 8.575 0 12.252-1.94 12.252-6.534 0-2.654-1.022-4.593-14.395-5.92-11.128-1.124-18.07-3.573-18.07-12.455 0-8.27 6.943-13.17 18.58-13.17 13.067 0 19.499 4.493 20.316 14.292 0 .307-.102.613-.307.92-.204.203-.51.408-.817.408h-5.308c-.51 0-1.021-.409-1.123-.92-1.225-5.613-4.39-7.452-12.76-7.452-9.393 0-10.517 3.268-10.517 5.717 0 2.961 1.328 3.88 13.987 5.513 12.557 1.634 18.478 3.982 18.478 12.76-.102 8.985-7.452 14.09-20.418 14.09z" fill="#539e43"/><path d="M127.264 194.906c0-1.837-1.02-3.574-2.654-4.492l-43.285-24.91c-.716-.409-1.532-.613-2.348-.715h-.41c-.815 0-1.632.306-2.347.715l-43.285 24.91c-1.634.918-2.655 2.654-2.655 4.492l.103 66.97c0 .918.51 1.837 1.327 2.246.817.51 1.837.51 2.552 0L59.99 249.42c1.633-.919 2.654-2.655 2.654-4.492v-31.341c0-1.837 1.02-3.573 2.654-4.492l10.923-6.33c.817-.51 1.736-.715 2.654-.715.92 0 1.838.205 2.553.716l10.923 6.33c1.634.918 2.654 2.653 2.654 4.49v31.342c0 1.837 1.021 3.573 2.655 4.492l25.726 14.7c.817.511 1.837.511 2.654 0 .817-.408 1.328-1.327 1.328-2.246zM335.32 102.72c-.816-.409-1.838-.409-2.553 0-.816.51-1.327 1.327-1.327 2.246v66.358c0 .612-.305 1.224-.918 1.633-.612.305-1.226.305-1.838 0l-10.821-6.227a5.262 5.262 0 00-5.207 0l-43.285 25.011c-1.634.919-2.655 2.654-2.655 4.492v49.92c0 1.838 1.021 3.574 2.655 4.493l43.285 25.011a5.262 5.262 0 005.207 0l43.285-25.011c1.634-.919 2.655-2.654 2.655-4.493V121.71c0-1.94-1.021-3.675-2.655-4.594l-25.827-14.395zm-3.981 126.998c0 .51-.204.918-.613 1.122l-14.803 8.576a1.514 1.514 0 01-1.327 0l-14.803-8.576c-.409-.204-.613-.714-.613-1.122v-17.151c0-.51.204-.919.613-1.123l14.803-8.576a1.514 1.514 0 011.327 0l14.803 8.576c.409.203.613.715.613 1.123zm148.027-17.56c1.634-.918 2.553-2.654 2.553-4.492v-12.148c0-1.837-1.022-3.573-2.553-4.491l-42.979-24.91a5.262 5.262 0 00-5.206 0l-43.285 25.011c-1.635.919-2.655 2.654-2.655 4.493v49.92c0 1.838 1.02 3.573 2.655 4.492l42.978 24.5c1.634.92 3.573.92 5.105 0l26.032-14.494c.817-.41 1.327-1.328 1.327-2.246 0-.919-.51-1.838-1.327-2.247l-43.49-25.011c-.816-.51-1.326-1.327-1.326-2.245v-15.62c0-.919.51-1.837 1.326-2.246l13.579-7.76a2.492 2.492 0 012.654 0l13.577 7.76c.817.51 1.328 1.327 1.328 2.246v12.25c0 .92.51 1.838 1.326 2.246.817.51 1.838.51 2.655 0z" fill="#333"/><path d="M433.12 209.81a.927.927 0 011.02 0l8.27 4.799c.307.203.51.51.51.919v9.596c0 .408-.203.714-.51.918l-8.27 4.798a.927.927 0 01-1.02 0l-8.269-4.798c-.306-.204-.51-.51-.51-.918v-9.596c0-.41.204-.716.51-.92z" fill="#539e43"/><g transform="translate(148.499 164.687) scale(.8833)"><mask id="prefix__c" fill="#fff"><use xlink:href="#prefix__a" width="100%" height="100%"/></mask><use fill="url(#prefix__b)" xlink:href="#prefix__a" width="100%" height="100%"/><g mask="url(#prefix__c)"><path d="M51.893 1.85L3.121 29.933C1.27 30.974 0 32.94 0 35.02v56.286c0 1.387.578 2.658 1.502 3.698L56.285 1.156c-1.387-.231-3.005-.116-4.392.693zm4.739 123.203c.462-.116.925-.347 1.387-.578l48.773-28.085c1.85-1.04 3.005-3.005 3.005-5.085V35.019c0-1.502-.694-3.005-1.734-4.045l-51.43 94.079z"/><path d="M106.676 29.934L57.788 1.85a8.025 8.025 0 00-1.503-.578L1.502 95.12a6.082 6.082 0 001.619 1.387l48.888 28.085c1.387.809 3.005 1.04 4.507.577l51.432-94.078c-.347-.462-.81-.81-1.272-1.156z" fill="url(#prefix__d)"/></g><g mask="url(#prefix__c)"><path d="M109.797 91.305V35.019c0-2.08-1.271-4.045-3.12-5.085L57.786 1.85a5.106 5.106 0 00-1.848-.693l53.511 91.42c.231-.347.347-.809.347-1.271zM3.12 29.934C1.272 30.974 0 32.94 0 35.02v56.286c0 2.08 1.387 4.045 3.12 5.085l48.889 28.085c1.156.693 2.427.925 3.814.693L3.467 29.818l-.346.116z"/><path fill="url(#prefix__e)" fill-rule="evenodd" d="M50.391.809l-.693.347h.924z" transform="translate(0 -9.246)"/><path d="M106.792 105.636c1.387-.809 2.427-2.196 2.89-3.698L56.053 10.402c-1.387-.231-2.89-.116-4.16.693L3.351 39.065l52.355 95.465a8.057 8.057 0 002.196-.693l48.889-28.2z" fill="url(#prefix__f)" fill-rule="evenodd" transform="translate(0 -9.246)"/><path fill="url(#prefix__g)" fill-rule="evenodd" d="M111.3 104.712l-.347-.578v.809l.346-.231z" transform="translate(0 -9.246)"/><path d="M106.792 105.636l-48.773 28.085a6.973 6.973 0 01-2.196.693l.925 1.734 54.089-31.32v-.694l-1.387-2.312c-.231 1.618-1.271 3.005-2.658 3.814z" fill="url(#prefix__h)" fill-rule="evenodd" transform="translate(0 -9.246)"/><path d="M106.792 105.636l-48.773 28.085a6.973 6.973 0 01-2.196.693l.925 1.734 54.089-31.32v-.694l-1.387-2.312c-.231 1.618-1.271 3.005-2.658 3.814z" fill="url(#prefix__i)" fill-rule="evenodd" transform="translate(0 -9.246)"/></g></g></g></svg>
